<?xml version="1.0" standalone="no"?>
<!DOCTYPE svg PUBLIC "-//W3C//DTD SVG 20010904//EN"
 "http://www.w3.org/TR/2001/REC-SVG-20010904/DTD/svg10.dtd">
<svg version="1.0" xmlns="http://www.w3.org/2000/svg"
 width="356.000000pt" height="165.000000pt" viewBox="0 0 356.000000 165.000000"
 preserveAspectRatio="xMidYMid meet">

<g transform="translate(0.000000,165.000000) scale(0.100000,-0.100000)"
fill="#000000" stroke="none">
<path d="M20 1165 l0 -355 95 0 95 0 0 100 0 101 66 -3 66 -3 52 -97 51 -98
103 0 c119 0 117 -15 22 133 l-59 92 39 36 c56 52 80 108 80 195 0 55 -5 81
-25 121 -53 106 -135 133 -402 133 l-183 0 0 -355z m391 188 c60 -35 63 -134
6 -177 -23 -17 -46 -22 -118 -24 l-89 -4 0 111 0 111 86 0 c64 0 94 -5 115
-17z"/>
<path d="M704 1458 c19 -35 77 -144 130 -242 l96 -180 0 -113 0 -113 95 0 95
0 0 116 0 115 125 236 c69 129 125 237 125 239 0 3 -41 3 -91 2 l-92 -3 -77
-142 c-42 -79 -79 -146 -82 -149 -3 -3 -43 62 -89 145 l-83 151 -93 0 -93 0
34 -62z"/>
<path d="M1440 1164 l0 -355 203 3 c182 3 208 6 259 26 80 32 148 97 184 174
25 54 29 75 29 153 0 76 -4 99 -27 146 -50 108 -138 177 -257 199 -29 5 -130
10 -222 10 l-169 0 0 -356z m355 195 c53 -15 110 -73 125 -129 18 -66 7 -146
-27 -193 -43 -61 -82 -77 -185 -77 l-88 0 0 205 0 205 68 0 c37 0 85 -5 107
-11z"/>
<path d="M2210 1165 l0 -355 285 0 285 0 0 75 0 75 -190 0 -190 0 0 65 0 65
165 0 165 0 0 75 0 75 -165 0 -165 0 0 65 0 65 185 0 185 0 0 75 0 75 -280 0
-280 0 0 -355z"/>
<path d="M2890 1166 l0 -356 95 0 95 0 0 100 0 100 68 0 68 0 49 -100 49 -100
103 0 c57 0 103 2 103 5 0 3 -31 55 -69 114 l-69 109 38 31 c110 88 113 304 6
386 -71 54 -96 59 -323 63 l-213 4 0 -356z m385 192 c51 -23 72 -109 39 -157
-25 -35 -75 -51 -159 -51 l-75 0 0 110 0 110 85 0 c46 0 96 -5 110 -12z"/>
<path d="M2540 671 c-88 -29 -155 -86 -189 -161 -27 -59 -28 -169 -2 -226 98
-216 408 -232 523 -27 106 188 -20 408 -240 419 -37 2 -78 0 -92 -5z m158 -77
c176 -73 176 -325 0 -398 -76 -32 -171 -11 -231 50 -46 46 -61 83 -62 150 0
50 5 69 30 109 55 89 170 128 263 89z"/>
<path d="M30 395 l0 -275 35 0 35 0 0 218 0 217 98 -187 c88 -170 99 -188 123
-188 23 0 34 17 122 188 l97 187 0 -217 0 -218 35 0 35 0 0 275 0 275 -44 0
-45 0 -98 -190 c-54 -104 -100 -190 -103 -190 -3 0 -49 86 -103 190 l-98 190
-44 0 -45 0 0 -275z"/>
<path d="M770 395 l0 -275 200 0 200 0 0 35 0 35 -160 0 -160 0 0 85 0 85 140
0 140 0 0 35 0 35 -140 0 -140 0 0 90 0 90 155 0 155 0 0 30 0 30 -195 0 -195
0 0 -275z"/>
<path d="M1220 635 l0 -35 90 0 90 0 0 -240 0 -240 40 0 40 0 0 240 0 240 90
0 90 0 0 35 0 35 -220 0 -220 0 0 -35z"/>
<path d="M1740 395 l0 -275 40 0 40 0 0 120 0 120 160 0 160 0 0 -120 0 -120
40 0 40 0 0 275 0 275 -40 0 -40 0 0 -120 0 -120 -160 0 -160 0 0 120 0 120
-40 0 -40 0 0 -275z"/>
<path d="M3020 394 l0 -276 163 4 c180 4 209 12 274 80 71 74 98 210 60 299
-23 55 -86 119 -142 145 -45 22 -64 24 -202 24 l-153 0 0 -276z m327 184 c69
-35 108 -101 108 -182 -1 -81 -30 -137 -92 -177 -45 -27 -53 -29 -155 -29
l-108 0 0 211 0 212 100 -5 c80 -4 109 -10 147 -30z"/>
</g>
</svg>
